<?xml version="1.0" encoding="UTF-8"?>
<svg version="1.1" xmlns="http://www.w3.org/2000/svg" viewBox="0 0 180 180">
<path d="M0 0 C3.42690032 2.79032441 4.95495823 6.66629154 6.8125 10.5625 C17.28994157 31.96789627 29.81653286 39.23355395 51 49 C51 49.66 51 50.32 51 51 C50.12432373 51.39940796 50.12432373 51.39940796 49.23095703 51.80688477 C29.37188024 60.91696669 16.74911675 68.21696532 7.1875 88.5 C6.2488425 90.47130777 5.30510042 92.44020526 4.35546875 94.40625 C3.94965576 95.26541016 3.54384277 96.12457031 3.12573242 97.00976562 C2 99 2 99 0 100 C-0.32685791 99.3201001 -0.65371582 98.6402002 -0.99047852 97.93969727 C-2.50351709 94.80852953 -4.03286074 91.68558945 -5.5625 88.5625 C-6.07619141 87.49322266 -6.58988281 86.42394531 -7.11914062 85.32226562 C-16.51131414 66.24623618 -30.35218878 59.39709822 -49 51 C-49 50.34 -49 49.68 -49 49 C-48.26885986 48.65743164 -47.53771973 48.31486328 -46.78442383 47.96191406 C-43.45715003 46.39818777 -40.13482381 44.82421404 -36.8125 43.25 C-35.66201172 42.71117187 -34.51152344 42.17234375 -33.32617188 41.6171875 C-32.21435547 41.08867188 -31.10253906 40.56015625 -29.95703125 40.015625 C-28.42526245 39.29294434 -28.42526245 39.29294434 -26.86254883 38.55566406 C-23.94509782 36.97016318 -21.58018633 35.07488702 -19 33 C-18.34 33 -17.68 33 -17 33 C-16.71552002 32.4212915 -16.43104004 31.84258301 -16.13793945 31.24633789 C-15.07508727 29.14822528 -13.95438735 27.10343577 -12.79296875 25.05859375 C-8.15887006 16.84529868 -3.64530945 8.71037099 0 0 Z " fill="#B4B4B4" transform="translate(50,1)"/>
</svg>
